<svg width="550" height="550" viewBox="0 0 550 550" fill="none" xmlns="http://www.w3.org/2000/svg">
<rect width="550" height="550" rx="80" fill="url(#paint0_linear)"/>
<path d="M56.9196 243.208C60.2256 243.208 63.353 243.565 66.3016 244.279C69.2502 244.993 71.7074 245.975 73.6732 247.224C75.9964 248.652 77.7834 250.481 79.0344 252.712C80.3746 254.854 81.0448 257.219 81.0448 259.807C81.0448 262.93 80.0619 265.518 78.0961 267.571C76.1304 269.534 73.5838 270.516 70.4565 270.516C67.3292 270.516 64.8273 269.623 62.9509 267.839C61.0745 266.054 60.1363 263.644 60.1363 260.61C60.1363 257.933 60.9851 255.613 62.6828 253.649C64.3805 251.686 66.4803 250.348 68.9822 249.634C68.2674 248.652 67.1505 247.894 65.6315 247.358C64.2018 246.733 62.6382 246.421 60.9405 246.421C55.5793 246.421 51.3797 249.366 48.3418 255.256C45.3931 261.056 43.9188 268.686 43.9188 278.146C43.9188 287.694 45.6165 294.566 49.0119 298.76C52.4073 302.954 56.6515 305.051 61.7446 305.051C64.7826 305.051 67.8206 304.248 70.8586 302.642C73.9859 301.036 76.8005 298.225 79.3024 294.209L81.5809 295.012C79.7938 300.812 76.6665 305.81 72.1989 310.004C67.7313 314.109 61.968 316.162 54.9092 316.162C45.7059 316.162 38.2002 313.128 32.3923 307.059C26.5844 300.991 23.6805 291.978 23.6805 280.02C23.6805 272.167 25.1101 265.474 27.9694 259.941C30.8287 254.408 34.7602 250.258 39.7639 247.492C44.7677 244.636 50.4862 243.208 56.9196 243.208Z" fill="#F7F7F7"/>
<path d="M106.255 315.225C100.536 315.225 96.2473 313.752 93.388 310.807C90.6181 307.862 89.2331 303.98 89.2331 299.162C89.2331 295.146 90.2607 291.844 92.3158 289.256C94.4602 286.579 97.0068 284.526 99.9554 283.098C102.993 281.671 106.836 280.154 111.482 278.547C116.396 276.852 119.97 275.335 122.204 273.996C124.527 272.568 125.689 270.65 125.689 268.24V257.799C125.689 254.051 124.795 251.151 123.008 249.098C121.311 246.957 118.63 245.886 114.967 245.886C110.678 245.886 107.416 246.957 105.183 249.098C107.684 249.991 109.605 251.329 110.946 253.114C112.375 254.899 113.09 256.996 113.09 259.405C113.09 262.44 112.063 264.849 110.008 266.634C107.952 268.419 105.451 269.311 102.502 269.311C99.3746 269.311 96.9621 268.329 95.2644 266.366C93.5667 264.403 92.7178 261.949 92.7178 259.004C92.7178 256.505 93.2986 254.408 94.4602 252.712C95.7112 250.928 97.5876 249.277 100.089 247.76C102.502 246.332 105.451 245.216 108.935 244.413C112.509 243.61 116.396 243.208 120.596 243.208C124.974 243.208 128.772 243.655 131.988 244.547C135.205 245.439 137.886 246.957 140.03 249.098C141.996 251.062 143.291 253.471 143.917 256.327C144.632 259.182 144.989 263.064 144.989 267.972V304.382C144.989 306.524 145.168 308.041 145.525 308.933C145.972 309.826 146.776 310.272 147.938 310.272C149.278 310.272 150.886 309.513 152.763 307.996L154.103 310.272C150.082 313.574 145.168 315.225 139.36 315.225C134.445 315.225 131.005 314.243 129.04 312.28C127.074 310.316 126.046 307.684 125.957 304.382C121.489 311.61 114.922 315.225 106.255 315.225ZM116.575 306.658C120.06 306.658 123.098 304.828 125.689 301.169V273.728C124.617 275.513 122.338 277.476 118.853 279.618C115.369 281.849 112.733 284.08 110.946 286.311C109.159 288.542 108.265 291.755 108.265 295.949C108.265 299.608 109.025 302.33 110.544 304.114C112.063 305.81 114.073 306.658 116.575 306.658Z" fill="#F7F7F7"/>
<path d="M204.039 243.208C208.06 243.208 211.098 244.413 213.153 246.823C215.208 249.232 216.236 252.132 216.236 255.524C216.236 258.825 215.253 261.547 213.287 263.689C211.411 265.741 208.909 266.768 205.782 266.768C202.744 266.768 200.331 266.009 198.544 264.492C196.757 262.886 195.863 260.789 195.863 258.201C195.863 253.917 197.829 250.437 201.761 247.76C201.403 247.67 200.867 247.626 200.152 247.626C199.259 247.626 198.544 247.715 198.008 247.894C194.613 248.429 191.709 250.481 189.296 254.051C186.973 257.621 185.811 261.279 185.811 265.027V300.5C185.811 304.605 186.794 307.461 188.76 309.067C190.815 310.673 194.032 311.477 198.41 311.477V314.288C197.159 314.288 196.132 314.243 195.327 314.154C186.213 313.886 180.137 313.752 177.099 313.752C174.687 313.752 169.192 313.886 160.614 314.154C159.899 314.243 159.006 314.288 157.933 314.288V311.477C161.15 311.477 163.384 310.807 164.635 309.469C165.886 308.041 166.511 305.498 166.511 301.839V259.673C166.511 255.568 165.886 252.579 164.635 250.705C163.384 248.831 161.15 247.894 157.933 247.894V245.083C160.793 245.35 163.563 245.484 166.243 245.484C174.195 245.484 180.718 244.859 185.811 243.61V256.059C187.509 252.222 189.966 249.143 193.183 246.823C196.4 244.413 200.018 243.208 204.039 243.208Z" fill="#F7F7F7"/>
<path d="M266.603 243.208C270.624 243.208 273.662 244.413 275.717 246.823C277.773 249.232 278.8 252.132 278.8 255.524C278.8 258.825 277.817 261.547 275.851 263.689C273.975 265.741 271.473 266.768 268.346 266.768C265.308 266.768 262.895 266.009 261.108 264.492C259.321 262.886 258.428 260.789 258.428 258.201C258.428 253.917 260.393 250.437 264.325 247.76C263.968 247.67 263.431 247.626 262.717 247.626C261.823 247.626 261.108 247.715 260.572 247.894C257.177 248.429 254.273 250.481 251.86 254.051C249.537 257.621 248.376 261.279 248.376 265.027V300.5C248.376 304.605 249.358 307.461 251.324 309.067C253.379 310.673 256.596 311.477 260.974 311.477V314.288C259.723 314.288 258.696 314.243 257.892 314.154C248.778 313.886 242.702 313.752 239.664 313.752C237.251 313.752 231.756 313.886 223.178 314.154C222.463 314.243 221.57 314.288 220.498 314.288V311.477C223.714 311.477 225.948 310.807 227.199 309.469C228.45 308.041 229.075 305.498 229.075 301.839V259.673C229.075 255.568 228.45 252.579 227.199 250.705C225.948 248.831 223.714 247.894 220.498 247.894V245.083C223.357 245.35 226.127 245.484 228.807 245.484C236.76 245.484 243.282 244.859 248.376 243.61V256.059C250.073 252.222 252.53 249.143 255.747 246.823C258.964 244.413 262.583 243.208 266.603 243.208Z" fill="#F7F7F7"/>
<path d="M300.486 210.547C304.238 210.547 307.187 211.484 309.331 213.358C311.565 215.143 312.682 217.641 312.682 220.854C312.682 224.067 311.565 226.61 309.331 228.484C307.187 230.269 304.238 231.161 300.486 231.161C296.733 231.161 293.739 230.269 291.506 228.484C289.361 226.61 288.289 224.067 288.289 220.854C288.289 217.641 289.361 215.143 291.506 213.358C293.739 211.484 296.733 210.547 300.486 210.547ZM310.94 301.839C310.94 305.498 311.565 308.041 312.816 309.469C314.156 310.807 316.39 311.477 319.518 311.477V314.288C310.582 313.931 304.64 313.752 301.692 313.752C298.922 313.752 292.712 313.931 283.062 314.288V311.477C286.278 311.477 288.512 310.807 289.763 309.469C291.014 308.041 291.64 305.498 291.64 301.839V259.673C291.64 255.568 291.014 252.579 289.763 250.705C288.512 248.831 286.278 247.894 283.062 247.894V245.083C285.921 245.35 288.691 245.484 291.372 245.484C299.324 245.484 305.847 244.859 310.94 243.61V301.839Z" fill="#F7F7F7"/>
<path d="M343.03 315.225C337.312 315.225 333.023 313.752 330.163 310.807C327.394 307.862 326.009 303.98 326.009 299.162C326.009 295.146 327.036 291.844 329.091 289.256C331.236 286.579 333.782 284.526 336.731 283.098C339.769 281.671 343.611 280.154 348.257 278.547C353.172 276.852 356.746 275.335 358.98 273.996C361.303 272.568 362.464 270.65 362.464 268.24V257.799C362.464 254.051 361.571 251.151 359.784 249.098C358.086 246.957 355.406 245.886 351.742 245.886C347.453 245.886 344.192 246.957 341.958 249.098C344.46 249.991 346.381 251.329 347.721 253.114C349.151 254.899 349.866 256.996 349.866 259.405C349.866 262.44 348.838 264.849 346.783 266.634C344.728 268.419 342.226 269.311 339.277 269.311C336.15 269.311 333.738 268.329 332.04 266.366C330.342 264.403 329.493 261.949 329.493 259.004C329.493 256.505 330.074 254.408 331.236 252.712C332.487 250.928 334.363 249.277 336.865 247.76C339.277 246.332 342.226 245.216 345.711 244.413C349.285 243.61 353.172 243.208 357.371 243.208C361.75 243.208 365.547 243.655 368.764 244.547C371.98 245.439 374.661 246.957 376.805 249.098C378.771 251.062 380.067 253.471 380.692 256.327C381.407 259.182 381.765 263.064 381.765 267.972V304.382C381.765 306.524 381.943 308.041 382.301 308.933C382.747 309.826 383.552 310.272 384.713 310.272C386.053 310.272 387.662 309.513 389.538 307.996L390.878 310.272C386.858 313.574 381.943 315.225 376.135 315.225C371.221 315.225 367.781 314.243 365.815 312.28C363.849 310.316 362.822 307.684 362.732 304.382C358.265 311.61 351.697 315.225 343.03 315.225ZM353.35 306.658C356.835 306.658 359.873 304.828 362.464 301.169V273.728C361.392 275.513 359.114 277.476 355.629 279.618C352.144 281.849 349.508 284.08 347.721 286.311C345.934 288.542 345.041 291.755 345.041 295.949C345.041 299.608 345.8 302.33 347.319 304.114C348.838 305.81 350.849 306.658 353.35 306.658Z" fill="#F7F7F7"/>
<path d="M458.238 257.933C456.451 257.933 454.932 257.353 453.681 256.193C452.431 254.943 451.805 253.203 451.805 250.972C451.805 248.831 452.341 246.644 453.413 244.413C451.269 245.306 449.482 246.332 448.052 247.492C446.712 248.563 445.55 249.946 444.567 251.642C447.337 254.943 448.722 259.227 448.722 264.492C448.722 271.542 446.265 276.852 441.351 280.421C436.526 283.991 430.092 285.776 422.051 285.776H419.638C415.975 287.917 414.143 290.282 414.143 292.87C414.143 295.726 415.93 297.154 419.504 297.154H434.113C441.976 297.154 448.231 298.626 452.877 301.571C457.613 304.427 459.981 308.844 459.981 314.823C459.981 319.374 458.507 323.479 455.558 327.138C452.699 330.886 448.32 333.876 442.423 336.107C436.526 338.338 429.288 339.453 420.71 339.453C412.043 339.453 405.074 338.338 399.802 336.107C394.619 333.965 392.028 330.842 392.028 326.737C392.028 323.97 393.279 321.471 395.781 319.24C398.283 317.099 401.991 315.403 406.905 314.154L408.112 316.296C404.895 318.973 403.287 322.051 403.287 325.532C403.287 329.28 404.984 332.135 408.38 334.099C411.775 336.151 416.466 337.178 422.453 337.178C428.707 337.178 433.756 335.928 437.598 333.429C441.529 330.931 443.495 327.406 443.495 322.855C443.495 319.91 442.378 317.589 440.145 315.894C438 314.198 434.203 313.351 428.752 313.351H420.442C414.724 313.351 410.256 312.414 407.039 310.54C403.823 308.576 402.214 305.631 402.214 301.705C402.214 298.403 403.376 295.458 405.699 292.87C408.022 290.282 411.552 287.784 416.287 285.374C409.854 284.571 404.761 282.429 401.008 278.949C397.255 275.469 395.379 270.65 395.379 264.492C395.379 257.442 397.791 252.132 402.616 248.563C407.531 244.993 414.009 243.208 422.051 243.208C430.986 243.208 437.821 245.306 442.557 249.5C444.255 247.09 446.355 245.172 448.856 243.744C451.358 242.316 453.905 241.602 456.496 241.602C459.177 241.602 461.276 242.405 462.795 244.012C464.404 245.529 465.208 247.537 465.208 250.035C465.208 252.534 464.493 254.497 463.063 255.925C461.723 257.264 460.115 257.933 458.238 257.933ZM422.051 283.366C424.553 283.366 426.429 281.938 427.68 279.083C429.02 276.227 429.69 271.363 429.69 264.492C429.69 257.621 429.02 252.757 427.68 249.901C426.429 247.046 424.553 245.618 422.051 245.618C419.549 245.618 417.628 247.046 416.287 249.901C415.036 252.757 414.411 257.621 414.411 264.492C414.411 271.363 415.036 276.227 416.287 279.083C417.628 281.938 419.549 283.366 422.051 283.366Z" fill="#F7F7F7"/>
<path d="M506.101 305.185C513.428 305.185 519.326 301.616 523.793 294.476L526.206 295.28C524.419 301.08 521.202 306.033 516.556 310.138C511.999 314.154 506.28 316.162 499.4 316.162C489.929 316.162 482.378 313.172 476.749 307.193C471.209 301.125 468.439 292.201 468.439 280.421C468.439 268.374 471.433 259.182 477.419 252.846C483.406 246.421 491.358 243.208 501.276 243.208C518.075 243.208 526.474 253.114 526.474 272.925H488.812C488.722 274.264 488.678 276.361 488.678 279.217C488.678 285.106 489.482 290.015 491.09 293.941C492.788 297.868 494.932 300.723 497.524 302.508C500.204 304.293 503.063 305.185 506.101 305.185ZM500.472 246.02C497.255 246.02 494.575 248.027 492.43 252.043C490.375 255.97 489.08 262.083 488.544 270.382H509.586C509.765 263.332 509.05 257.531 507.442 252.98C505.923 248.34 503.599 246.02 500.472 246.02Z" fill="#F7F7F7"/>
<path d="M470.395 322.654H526.241V331.02H470.395V322.654Z" fill="#F7F7F7"/>
<path d="M23.6328 322.654H383.835V331.02H23.6328V322.654Z" fill="#F7F7F7"/>
<defs>
<linearGradient id="paint0_linear" x1="0" y1="0" x2="550" y2="550" gradientUnits="userSpaceOnUse">
<stop stop-color="#56CCF2"/>
<stop offset="1" stop-color="#2F80ED"/>
</linearGradient>
</defs>
</svg>
